<!--?xml version="1.0" standalone="no"?-->
              <svg id="sw-js-blob-svg" viewBox="0 0 100 100" xmlns="http://www.w3.org/2000/svg" version="1.1">
                    <defs> 
                        <linearGradient id="sw-gradient" x1="0" x2="1" y1="1" y2="0">
                            <stop id="stop1" stop-color="rgba(248, 117, 55, 1)" offset="0%"></stop>
                            <stop id="stop2" stop-color="rgba(251, 168, 31, 1)" offset="100%"></stop>
                        </linearGradient>
                    </defs>
                <path fill="url(#sw-gradient)" d="M17.2,-25.5C23.3,-22.9,29.9,-19.8,33.1,-14.6C36.2,-9.4,36,-2.1,35.7,5.7C35.4,13.5,35.1,21.8,31.2,28.1C27.4,34.3,20,38.5,12.1,40.7C4.1,42.9,-4.3,43,-12.3,41C-20.4,39.1,-28,35,-33.5,28.9C-39,22.8,-42.2,14.7,-43.5,6.2C-44.9,-2.3,-44.3,-11.1,-41.2,-19.2C-38.1,-27.2,-32.4,-34.4,-25.1,-36.5C-17.8,-38.6,-8.9,-35.5,-1.7,-32.9C5.6,-30.3,11.1,-28.1,17.2,-25.5Z" width="100%" height="100%" transform="translate(50 50)" stroke-width="0" style="transition: all 0.3s ease 0s;"></path>
              </svg>